<svg width="30" height="30" viewBox="0 0 30 30" fill="none" xmlns="http://www.w3.org/2000/svg">
<path d="M26.25 19.6875H3.75C3.25287 19.687 2.77625 19.4893 2.42472 19.1378C2.0732 18.7863 1.8755 18.3096 1.875 17.8125V12.1875C1.8755 11.6904 2.0732 11.2137 2.42472 10.8622C2.77625 10.5107 3.25287 10.313 3.75 10.3125H26.25C26.7471 10.313 27.2238 10.5107 27.5753 10.8622C27.9268 11.2137 28.1245 11.6904 28.125 12.1875V17.8125C28.1245 18.3096 27.9268 18.7863 27.5753 19.1378C27.2238 19.4893 26.7471 19.687 26.25 19.6875ZM3.75 12.1875V17.8125H26.25V12.1875H3.75Z" fill="white"/>
<path d="M5.625 14.0625H18.75V15.9375H5.625V14.0625Z" fill="white"/>
</svg>
