<svg width="15" height="15" viewBox="0 0 15 15" fill="none" xmlns="http://www.w3.org/2000/svg">
<path d="M12.1875 12.1875H2.8125V2.8125H7.5V1.875H2.8125C2.56394 1.87525 2.32562 1.9741 2.14986 2.14986C1.9741 2.32562 1.87525 2.56394 1.875 2.8125V12.1875C1.87525 12.4361 1.9741 12.6744 2.14986 12.8501C2.32562 13.0259 2.56394 13.1248 2.8125 13.125H12.1875C12.4361 13.1248 12.6744 13.0259 12.8501 12.8501C13.0259 12.6744 13.1248 12.4361 13.125 12.1875V7.5H12.1875V12.1875Z" fill="#575757"/>
<path d="M12.1875 12.1875H2.8125V2.8125H7.5V1.875H2.8125C2.56394 1.87525 2.32562 1.9741 2.14986 2.14986C1.9741 2.32562 1.87525 2.56394 1.875 2.8125V12.1875C1.87525 12.4361 1.9741 12.6744 2.14986 12.8501C2.32562 13.0259 2.56394 13.1248 2.8125 13.125H12.1875C12.4361 13.1248 12.6744 13.0259 12.8501 12.8501C13.0259 12.6744 13.1248 12.4361 13.125 12.1875V7.5H12.1875V12.1875Z" fill="#575757"/>
<path d="M12.1875 2.8125V0.9375H11.25V2.8125H9.375V3.75H11.25V5.625H12.1875V3.75H14.0625V2.8125H12.1875Z" fill="#575757"/>
</svg>
