<svg width="19" height="19" viewBox="0 0 19 19" fill="none" xmlns="http://www.w3.org/2000/svg">
<path d="M5.59375 7.41667C5.38655 7.41667 5.18784 7.49898 5.04132 7.64549C4.89481 7.792 4.8125 7.99072 4.8125 8.19792C4.8125 8.40512 4.89481 8.60383 5.04132 8.75034C5.18784 8.89686 5.38655 8.97917 5.59375 8.97917C5.80095 8.97917 5.99966 8.89686 6.14618 8.75034C6.29269 8.60383 6.375 8.40512 6.375 8.19792C6.375 7.99072 6.29269 7.792 6.14618 7.64549C5.99966 7.49898 5.80095 7.41667 5.59375 7.41667ZM4.8125 13.9271C4.8125 13.7199 4.89481 13.5212 5.04132 13.3747C5.18784 13.2281 5.38655 13.1458 5.59375 13.1458C5.80095 13.1458 5.99966 13.2281 6.14618 13.3747C6.29269 13.5212 6.375 13.7199 6.375 13.9271C6.375 14.1343 6.29269 14.333 6.14618 14.4795C5.99966 14.626 5.80095 14.7083 5.59375 14.7083C5.38655 14.7083 5.18784 14.626 5.04132 14.4795C4.89481 14.333 4.8125 14.1343 4.8125 13.9271ZM0.125 3.51042C0.125 2.61255 0.481677 1.75145 1.11657 1.11657C1.75145 0.481677 2.61255 0.125 3.51042 0.125H15.4896C16.3875 0.125 17.2485 0.481677 17.8834 1.11657C18.5183 1.75145 18.875 2.61255 18.875 3.51042V15.4896C18.875 16.3875 18.5183 17.2485 17.8834 17.8834C17.2485 18.5183 16.3875 18.875 15.4896 18.875H3.51042C2.61255 18.875 1.75145 18.5183 1.11657 17.8834C0.481677 17.2485 0.125 16.3875 0.125 15.4896V3.51042ZM3.25 8.19792C3.25 8.5057 3.31062 8.81047 3.42841 9.09483C3.54619 9.37919 3.71883 9.63756 3.93647 9.8552C4.15411 10.0728 4.41248 10.2455 4.69684 10.3633C4.98119 10.481 5.28596 10.5417 5.59375 10.5417C5.90154 10.5417 6.20631 10.481 6.49066 10.3633C6.77502 10.2455 7.03339 10.0728 7.25103 9.8552C7.46867 9.63756 7.64131 9.37919 7.75909 9.09483C7.87688 8.81047 7.9375 8.5057 7.9375 8.19792C7.9375 7.57632 7.69057 6.98017 7.25103 6.54064C6.81149 6.1011 6.21535 5.85417 5.59375 5.85417C4.97215 5.85417 4.37601 6.1011 3.93647 6.54064C3.49693 6.98017 3.25 7.57632 3.25 8.19792ZM5.59375 11.5833C4.97215 11.5833 4.37601 11.8303 3.93647 12.2698C3.49693 12.7093 3.25 13.3055 3.25 13.9271C3.25 14.5487 3.49693 15.1448 3.93647 15.5844C4.37601 16.0239 4.97215 16.2708 5.59375 16.2708C6.21535 16.2708 6.81149 16.0239 7.25103 15.5844C7.69057 15.1448 7.9375 14.5487 7.9375 13.9271C7.9375 13.3055 7.69057 12.7093 7.25103 12.2698C6.81149 11.8303 6.21535 11.5833 5.59375 11.5833ZM9.5 8.19792C9.5 8.62917 9.85 8.97917 10.2812 8.97917H14.9687C15.176 8.97917 15.3747 8.89686 15.5212 8.75034C15.6677 8.60383 15.75 8.40512 15.75 8.19792C15.75 7.99072 15.6677 7.792 15.5212 7.64549C15.3747 7.49898 15.176 7.41667 14.9687 7.41667H10.2812C10.074 7.41667 9.87534 7.49898 9.72882 7.64549C9.58231 7.792 9.5 7.99072 9.5 8.19792ZM10.2812 13.1458C10.074 13.1458 9.87534 13.2281 9.72882 13.3747C9.58231 13.5212 9.5 13.7199 9.5 13.9271C9.5 14.1343 9.58231 14.333 9.72882 14.4795C9.87534 14.626 10.074 14.7083 10.2812 14.7083H14.9687C15.176 14.7083 15.3747 14.626 15.5212 14.4795C15.6677 14.333 15.75 14.1343 15.75 13.9271C15.75 13.7199 15.6677 13.5212 15.5212 13.3747C15.3747 13.2281 15.176 13.1458 14.9687 13.1458H10.2812ZM3.25 3.51042C3.25 3.94167 3.6 4.29167 4.03125 4.29167H14.9687C15.176 4.29167 15.3747 4.20936 15.5212 4.06284C15.6677 3.91633 15.75 3.71762 15.75 3.51042C15.75 3.30322 15.6677 3.1045 15.5212 2.95799C15.3747 2.81148 15.176 2.72917 14.9687 2.72917H4.03125C3.82405 2.72917 3.62534 2.81148 3.47882 2.95799C3.33231 3.1045 3.25 3.30322 3.25 3.51042Z" fill="#3751A6"/>
</svg>
