<svg width="30" height="30" viewBox="0 0 30 30" fill="none" xmlns="http://www.w3.org/2000/svg">
<path d="M28.4999 21.75V8.25C28.4999 7.005 27.4949 6 26.2499 6H5.23486C3.98986 6 2.98486 7.005 2.98486 8.25V21.75C2.98486 22.995 3.98986 24 5.23486 24H26.2499C27.4949 24 28.4999 22.995 28.4999 21.75ZM26.5349 8.085C27.0299 8.58 26.7599 9.09 26.4899 9.345L20.3999 14.925L26.2499 21.015C26.4299 21.225 26.5499 21.555 26.3399 21.78C26.1449 22.02 25.6949 22.005 25.4999 21.855L18.9449 16.26L15.7349 19.185L12.5399 16.26L5.98486 21.855C5.78986 22.005 5.33986 22.02 5.14486 21.78C4.93486 21.555 5.05486 21.225 5.23486 21.015L11.0849 14.925L4.99486 9.345C4.72486 9.09 4.45486 8.58 4.94986 8.085C5.44486 7.59 5.95486 7.83 6.37486 8.19L15.7349 15.75L25.1099 8.19C25.5299 7.83 26.0399 7.59 26.5349 8.085Z" fill="#3751A6"/>
</svg>
