<svg width="21" height="18" viewBox="0 0 21 18" fill="none" xmlns="http://www.w3.org/2000/svg">
<path d="M2.16634 17.6574C1.59343 17.6574 1.1028 17.4532 0.694468 17.0449C0.286134 16.6366 0.0823151 16.1463 0.0830096 15.5741V3.07406C0.0830096 2.50114 0.287176 2.01052 0.69551 1.60218C1.10384 1.19385 1.59412 0.99003 2.16634 0.990724H18.833C19.4059 0.990724 19.8966 1.19489 20.3049 1.60322C20.7132 2.01156 20.917 2.50184 20.9163 3.07406V15.5741C20.9163 16.147 20.7122 16.6376 20.3038 17.0459C19.8955 17.4543 19.4052 17.6581 18.833 17.6574H2.16634ZM10.4997 10.3657L2.16634 5.15739V15.5741H18.833V5.15739L10.4997 10.3657ZM10.4997 8.28239L18.833 3.07406H2.16634L10.4997 8.28239ZM2.16634 5.15739V3.07406V15.5741V5.15739Z" fill="#808080"/>
</svg>
