<svg width="25" height="26" viewBox="0 0 25 26" fill="none" xmlns="http://www.w3.org/2000/svg">
<path d="M19.5312 10.9805C19.5312 9.11567 18.7905 7.32724 17.4718 6.00862C16.1532 4.69001 14.3648 3.94922 12.5 3.94922C10.6352 3.94922 8.84677 4.69001 7.52816 6.00862C6.20954 7.32724 5.46875 9.11567 5.46875 10.9805C5.46875 13.8648 7.77656 17.6242 12.5 22.1273C17.2234 17.6242 19.5312 13.8648 19.5312 10.9805ZM12.5 24.2617C6.77031 19.0539 3.90625 14.6258 3.90625 10.9805C3.90625 8.70126 4.81166 6.51541 6.4233 4.90377C8.03494 3.29213 10.2208 2.38672 12.5 2.38672C14.7792 2.38672 16.9651 3.29213 18.5767 4.90377C20.1883 6.51541 21.0938 8.70126 21.0938 10.9805C21.0938 14.6258 18.2297 19.0539 12.5 24.2617Z" fill="#808080"/>
<path d="M12.5 13.3242C13.1216 13.3242 13.7177 13.0773 14.1573 12.6378C14.5968 12.1982 14.8438 11.6021 14.8438 10.9805C14.8438 10.3589 14.5968 9.76273 14.1573 9.32319C13.7177 8.88365 13.1216 8.63672 12.5 8.63672C11.8784 8.63672 11.2823 8.88365 10.8427 9.32319C10.4032 9.76273 10.1562 10.3589 10.1562 10.9805C10.1562 11.6021 10.4032 12.1982 10.8427 12.6378C11.2823 13.0773 11.8784 13.3242 12.5 13.3242ZM12.5 14.8867C11.464 14.8867 10.4704 14.4752 9.73786 13.7426C9.0053 13.01 8.59375 12.0165 8.59375 10.9805C8.59375 9.94447 9.0053 8.9509 9.73786 8.21833C10.4704 7.48577 11.464 7.07422 12.5 7.07422C13.536 7.07422 14.5296 7.48577 15.2621 8.21833C15.9947 8.9509 16.4062 9.94447 16.4062 10.9805C16.4062 12.0165 15.9947 13.01 15.2621 13.7426C14.5296 14.4752 13.536 14.8867 12.5 14.8867Z" fill="#808080"/>
</svg>
