<svg width="25" height="26" viewBox="0 0 25 26" fill="none" xmlns="http://www.w3.org/2000/svg">
<path d="M9.75625 11.9513C10.7337 13.6685 12.1558 15.0905 13.8729 16.068L14.7937 14.7784C14.9418 14.571 15.1608 14.4251 15.4092 14.3683C15.6576 14.3115 15.9182 14.3477 16.1417 14.4701C17.6149 15.2752 19.2419 15.7594 20.9156 15.8909C21.1768 15.9116 21.4207 16.03 21.5985 16.2225C21.7763 16.415 21.875 16.6674 21.875 16.9294V21.5773C21.8751 21.8353 21.7794 22.084 21.6066 22.2755C21.4338 22.4669 21.1961 22.5875 20.9396 22.6138C20.3852 22.671 19.8282 22.6995 19.2708 22.6992C10.3542 22.6992 3.125 15.4701 3.125 6.55339C3.125 5.99297 3.15313 5.43672 3.21042 4.88464C3.23672 4.62807 3.35728 4.39039 3.54874 4.21759C3.7402 4.04479 3.98896 3.94916 4.24688 3.94922H8.89479C9.15684 3.94919 9.40927 4.04792 9.60175 4.22573C9.79424 4.40354 9.91263 4.64737 9.93333 4.90859C10.0648 6.58234 10.549 8.20931 11.3542 9.68255C11.4765 9.90606 11.5127 10.1667 11.4559 10.415C11.3991 10.6634 11.2532 10.8824 11.0458 11.0305L9.75625 11.9513ZM7.12917 11.2669L9.10833 9.85339C8.54665 8.64098 8.16182 7.35426 7.96562 6.03255H5.21875C5.2125 6.20547 5.20937 6.37943 5.20937 6.55339C5.20833 14.3201 11.5042 20.6159 19.2708 20.6159C19.4448 20.6159 19.6187 20.6128 19.7917 20.6055V17.8586C18.47 17.6624 17.1832 17.2776 15.9708 16.7159L14.5573 18.6951C13.9882 18.4739 13.4354 18.2128 12.9031 17.9138L12.8427 17.8794C10.7996 16.7166 9.10758 15.0247 7.94479 12.9815L7.91042 12.9211C7.61136 12.3888 7.35029 11.836 7.12917 11.2669Z" fill="#808080"/>
</svg>
