<svg width="30" height="30" viewBox="0 0 30 30" fill="none" xmlns="http://www.w3.org/2000/svg">
<path d="M27 8.625C27 8.32663 26.8815 8.04048 26.6705 7.8295C26.4595 7.61853 26.1734 7.5 25.875 7.5H4.125C3.82663 7.5 3.54048 7.61853 3.3295 7.8295C3.11853 8.04048 3 8.32663 3 8.625C3 8.92337 3.11853 9.20952 3.3295 9.4205C3.54048 9.63147 3.82663 9.75 4.125 9.75H25.875C26.1734 9.75 26.4595 9.63147 26.6705 9.4205C26.8815 9.20952 27 8.92337 27 8.625ZM27 13.125C27 12.8266 26.8815 12.5405 26.6705 12.3295C26.4595 12.1185 26.1734 12 25.875 12H4.125C3.82663 12 3.54048 12.1185 3.3295 12.3295C3.11853 12.5405 3 12.8266 3 13.125C3 13.4234 3.11853 13.7095 3.3295 13.9205C3.54048 14.1315 3.82663 14.25 4.125 14.25H18.309C19.3883 13.7543 20.5623 13.4985 21.75 13.5C22.9377 13.4985 24.1117 13.7543 25.191 14.25H25.875C26.1734 14.25 26.4595 14.1315 26.6705 13.9205C26.8815 13.7095 27 13.4234 27 13.125ZM13.635 23.25H4.125C3.82663 23.25 3.54048 23.1315 3.3295 22.9205C3.11853 22.7095 3 22.4234 3 22.125C3 21.8266 3.11853 21.5405 3.3295 21.3295C3.54048 21.1185 3.82663 21 4.125 21H13.533C13.4658 21.7512 13.4991 22.5081 13.635 23.25ZM14.0625 18.75H4.125C3.82663 18.75 3.54048 18.6315 3.3295 18.4205C3.11853 18.2095 3 17.9234 3 17.625C3 17.3266 3.11853 17.0405 3.3295 16.8295C3.54048 16.6185 3.82663 16.5 4.125 16.5H15.3855C14.8278 17.175 14.3812 17.9345 14.0625 18.75ZM28.5 21.75C28.5 23.5402 27.7888 25.2571 26.523 26.523C25.2571 27.7888 23.5402 28.5 21.75 28.5C19.9598 28.5 18.2429 27.7888 16.977 26.523C15.7112 25.2571 15 23.5402 15 21.75C15 19.9598 15.7112 18.2429 16.977 16.977C18.2429 15.7112 19.9598 15 21.75 15C23.5402 15 25.2571 15.7112 26.523 16.977C27.7888 18.2429 28.5 19.9598 28.5 21.75ZM21.75 22.8105L23.469 24.531C23.5387 24.6007 23.6215 24.656 23.7126 24.6938C23.8037 24.7315 23.9014 24.7509 24 24.7509C24.0986 24.7509 24.1963 24.7315 24.2874 24.6938C24.3785 24.656 24.4613 24.6007 24.531 24.531C24.6007 24.4613 24.656 24.3785 24.6938 24.2874C24.7315 24.1963 24.7509 24.0986 24.7509 24C24.7509 23.9014 24.7315 23.8037 24.6938 23.7126C24.656 23.6215 24.6007 23.5387 24.531 23.469L22.8105 21.75L24.531 20.031C24.6718 19.8902 24.7509 19.6992 24.7509 19.5C24.7509 19.3008 24.6718 19.1098 24.531 18.969C24.3902 18.8282 24.1992 18.7491 24 18.7491C23.8008 18.7491 23.6098 18.8282 23.469 18.969L21.75 20.6895L20.031 18.969C19.8902 18.8282 19.6992 18.7491 19.5 18.7491C19.3008 18.7491 19.1098 18.8282 18.969 18.969C18.8282 19.1098 18.7491 19.3008 18.7491 19.5C18.7491 19.6992 18.8282 19.8902 18.969 20.031L20.6895 21.75L18.969 23.469C18.8993 23.5387 18.844 23.6215 18.8062 23.7126C18.7685 23.8037 18.7491 23.9014 18.7491 24C18.7491 24.0986 18.7685 24.1963 18.8062 24.2874C18.844 24.3785 18.8993 24.4613 18.969 24.531C19.0387 24.6007 19.1215 24.656 19.2126 24.6938C19.3037 24.7315 19.4014 24.7509 19.5 24.7509C19.5986 24.7509 19.6963 24.7315 19.7874 24.6938C19.8785 24.656 19.9613 24.6007 20.031 24.531L21.75 22.8105Z" fill="#575757"/>
</svg>
